<svg width="69" height="69" viewBox="0 0 69 69" fill="none" xmlns="http://www.w3.org/2000/svg">
<path d="M54.6961 16.0238C54.9896 15.8308 55.0398 15.4213 54.7975 15.167C49.6919 9.80827 42.4859 6.46875 34.5 6.46875C32.3814 6.46875 30.3176 6.70379 28.3334 7.14922C27.9286 7.2401 27.7651 7.72151 28.0191 8.04963C31.8398 12.9865 35.2888 18.2261 38.324 23.7263C38.4616 23.9757 38.7606 24.0883 39.0273 23.9883C44.5719 21.9105 49.8214 19.229 54.6961 16.0238Z" fill="#FFAC5F"/>
<path d="M7.69628 28.9238C7.34526 28.9084 7.09238 28.5819 7.17053 28.2393C9.12018 19.6932 14.9754 12.6339 22.7589 9.03871C22.9952 8.92956 23.275 8.99756 23.4376 9.20081C27.3856 14.1359 30.9426 19.397 34.0618 24.9372C34.2413 25.256 34.0788 25.6583 33.728 25.762C26.5973 27.8699 19.047 29.0013 11.2312 29.0013C10.0465 29.0013 8.86803 28.9753 7.69628 28.9238Z" fill="#FFAC5F"/>
<path d="M13.8013 52.3711C13.5751 52.6533 13.1476 52.6656 12.9167 52.3873C8.88973 47.5336 6.46875 41.2995 6.46875 34.5C6.46875 34.2533 6.47194 34.0073 6.47827 33.7621C6.48653 33.4425 6.75958 33.1967 7.07891 33.2123C8.45468 33.2797 9.83904 33.3138 11.2312 33.3138C19.8541 33.3138 28.173 32.0067 35.9999 29.5799C36.2689 29.4965 36.5594 29.6182 36.6857 29.87C37.5692 31.6313 38.4096 33.4179 39.2055 35.2285C39.3482 35.553 39.1634 35.9269 38.8208 36.0184C28.813 38.69 20.0954 44.5197 13.8013 52.3711Z" fill="#FFAC5F"/>
<path d="M46.7811 59.231C46.832 59.4857 46.705 59.7431 46.4702 59.8542C42.8401 61.571 38.7822 62.5312 34.5 62.5312C27.8294 62.5312 21.703 60.2012 16.8903 56.3106C16.6519 56.1179 16.6135 55.7705 16.8019 55.5288C22.7046 47.9592 31.0471 42.3903 40.6461 40.0018C40.9245 39.9325 41.2102 40.0826 41.313 40.3504C43.6421 46.4174 45.4809 52.7271 46.7811 59.231Z" fill="#FFAC5F"/>
<path d="M61.4507 39.9212C61.7485 39.9928 61.9346 40.2884 61.8684 40.5875C60.4154 47.1493 56.6628 52.8464 51.4994 56.7902C51.1694 57.0423 50.695 56.8579 50.607 56.4522C49.3657 50.7309 47.7213 45.1601 45.7052 39.771C45.5752 39.4233 45.8014 39.0439 46.1701 39.0015C47.8245 38.811 49.507 38.7132 51.2124 38.7132C54.7405 38.7132 58.1686 39.1317 61.4507 39.9212Z" fill="#FFAC5F"/>
<path d="M57.4222 19.3912C57.6885 19.2141 58.049 19.2854 58.2197 19.5558C60.9508 23.8815 62.5312 29.0062 62.5312 34.5C62.5312 34.6807 62.5295 34.861 62.5261 35.0409C62.5193 35.4027 62.1771 35.6599 61.824 35.5801C58.4091 34.808 54.8573 34.4007 51.2124 34.4007C48.8424 34.4007 46.5127 34.5727 44.2349 34.905C43.9742 34.9431 43.7198 34.8017 43.6161 34.5595C42.751 32.5389 41.8327 30.5467 40.8631 28.5844C40.7118 28.2783 40.8571 27.908 41.1758 27.7855C46.9243 25.5774 52.3669 22.7522 57.4222 19.3912Z" fill="#FFAC5F"/>
</svg>
